<svg width="123" height="77" viewBox="0 0 123 77" fill="none" xmlns="http://www.w3.org/2000/svg">
<path d="M17.5576 9.69756H22.6035V31.4438H17.5576V29.1665C15.4887 31.1015 13.2635 32.069 10.8819 32.069C7.87527 32.069 5.38956 30.9824 3.4248 28.8093C1.47493 26.5915 0.5 23.823 0.5 20.5037C0.5 17.244 1.47493 14.5276 3.4248 12.3545C5.37467 10.1813 7.81573 9.09473 10.748 9.09473C13.2783 9.09473 15.5482 10.1367 17.5576 12.2205V9.69756ZM5.63515 20.5037C5.63515 22.5876 6.19332 24.2844 7.30966 25.5942C8.45576 26.919 9.89956 27.5813 11.641 27.5813C13.5016 27.5813 15.0049 26.9413 16.1511 25.6612C17.2972 24.3365 17.8702 22.6545 17.8702 20.6154C17.8702 18.5762 17.2972 16.8942 16.1511 15.5695C15.0049 14.2746 13.5165 13.6271 11.6857 13.6271C9.9591 13.6271 8.5153 14.282 7.35431 15.5918C6.20821 16.9166 5.63515 18.5539 5.63515 20.5037Z" fill="#24292E"/>
<path d="M51.7177 9.69756H56.7635V11.707C58.5199 9.96548 60.4995 9.09473 62.7024 9.09473C65.2328 9.09473 67.2049 9.89106 68.6189 11.4837C69.8394 12.8382 70.4497 15.0486 70.4497 18.1148V31.4438H65.4039V19.2981C65.4039 17.1547 65.1063 15.6737 64.5109 14.8551C63.9304 14.0215 62.8736 13.6048 61.3405 13.6048C59.6734 13.6048 58.4901 14.1555 57.7905 15.2569C57.1058 16.3435 56.7635 18.2413 56.7635 20.9503V31.4438H51.7177V9.69756Z" fill="#24292E"/>
<path d="M81.8363 9.69759V31.4438H76.8128V9.69759H81.8363ZM76.0537 3.92134C76.0537 3.04315 76.3737 2.28404 77.0138 1.64401C77.6538 1.00398 78.4203 0.68396 79.3134 0.68396C80.2214 0.68396 80.9954 1.00398 81.6354 1.64401C82.2754 2.26916 82.5955 3.03571 82.5955 3.94366C82.5955 4.85162 82.2754 5.62561 81.6354 6.26565C81.0102 6.90568 80.2437 7.2257 79.3357 7.2257C78.4278 7.2257 77.6538 6.90568 77.0138 6.26565C76.3737 5.62561 76.0537 4.84418 76.0537 3.92134Z" fill="#24292E"/>
<path d="M118.698 14.3862V31.4438H113.674V14.3862H111.531V9.69758H113.674V1.72693H118.698V9.69758H122.605V14.3862H118.698Z" fill="#24292E"/>
<path d="M22.5588 64.6087C22.5588 65.6357 22.5216 66.5362 22.4472 67.3102C22.3877 68.0991 22.2983 68.7912 22.1793 69.3866C21.822 71.0239 21.1225 72.4305 20.0806 73.6064C18.1158 75.8688 15.4143 77 11.9759 77C9.07347 77 6.68451 76.2186 4.80906 74.6557C2.87408 73.0482 1.75774 70.823 1.46005 67.98H6.5059C6.69939 69.0517 7.01941 69.8778 7.46595 70.4583C8.50786 71.8128 10.0261 72.4901 12.0206 72.4901C15.6971 72.4901 17.5353 70.235 17.5353 65.725V62.6886C15.5408 64.7278 13.2411 65.7474 10.6363 65.7474C7.67433 65.7474 5.24815 64.6757 3.35782 62.5323C1.45261 60.3592 0.5 57.6428 0.5 54.3831C0.5 51.2127 1.38563 48.5186 3.15688 46.3008C5.0621 43.949 7.57758 42.7731 10.7033 42.7731C13.4421 42.7731 15.7194 43.7927 17.5353 45.8319V43.376H22.5588V64.6087ZM17.7362 54.2938C17.7362 52.1802 17.1706 50.4908 16.0394 49.2256C14.8933 47.9306 13.4272 47.2831 11.641 47.2831C9.73583 47.2831 8.2325 47.9902 7.13104 49.4042C6.13378 50.6694 5.63515 52.3067 5.63515 54.3161C5.63515 56.2957 6.13378 57.9181 7.13104 59.1833C8.21761 60.5676 9.72095 61.2597 11.641 61.2597C13.5611 61.2597 15.0794 60.5601 16.1957 59.161C17.2227 57.8958 17.7362 56.2734 17.7362 54.2938Z" fill="#24292E"/>
<path d="M28.8997 43.376H33.9232V45.3184C34.8461 44.3509 35.6647 43.6885 36.3792 43.3313C37.1085 42.9592 37.9718 42.7731 38.9691 42.7731C40.2938 42.7731 41.6781 43.2048 43.1219 44.0681L40.8222 48.6674C39.8696 47.9827 38.9393 47.6404 38.0314 47.6404C35.2926 47.6404 33.9232 49.7093 33.9232 53.8472V65.1222H28.8997V43.376Z" fill="#24292E"/>
<path d="M44.573 54.0928C44.573 50.9522 45.6968 48.2804 47.9443 46.0775C50.1919 43.8746 52.9306 42.7731 56.1606 42.7731C59.4054 42.7731 62.159 43.882 64.4215 46.0998C66.6542 48.3176 67.7705 51.0415 67.7705 54.2714C67.7705 57.5311 66.6467 60.2624 64.3992 62.4653C62.1367 64.6534 59.3607 65.7474 56.0713 65.7474C52.8116 65.7474 50.0803 64.631 47.8774 62.3984C45.6744 60.1955 44.573 57.4269 44.573 54.0928ZM49.7081 54.1821C49.7081 56.3553 50.2886 58.0744 51.4496 59.3396C52.6404 60.6197 54.2107 61.2597 56.1606 61.2597C58.1253 61.2597 59.6956 60.6271 60.8715 59.3619C62.0474 58.0967 62.6353 56.4073 62.6353 54.2938C62.6353 52.1802 62.0474 50.4908 60.8715 49.2256C59.6808 47.9455 58.1105 47.3055 56.1606 47.3055C54.2405 47.3055 52.6851 47.9455 51.4943 49.2256C50.3035 50.5056 49.7081 52.1578 49.7081 54.1821Z" fill="#24292E"/>
<path d="M78.1301 43.376V55.8566C78.1301 59.4587 79.5516 61.2597 82.3945 61.2597C85.2374 61.2597 86.6589 59.4587 86.6589 55.8566V43.376H91.6824V55.9683C91.6824 57.7097 91.4666 59.2131 91.035 60.4783C90.6182 61.6095 89.8963 62.6291 88.8693 63.537C87.1724 65.0106 85.0142 65.7474 82.3945 65.7474C79.7897 65.7474 77.6389 65.0106 75.9421 63.537C74.9002 62.6291 74.1634 61.6095 73.7317 60.4783C73.315 59.4661 73.1066 57.9628 73.1066 55.9683V43.376H78.1301Z" fill="#24292E"/>
<path d="M103.047 76.9554H98.0232V43.376H103.047V45.7426C105.026 43.763 107.274 42.7731 109.789 42.7731C112.781 42.7731 115.245 43.8746 117.18 46.0775C119.144 48.2655 120.127 51.0266 120.127 54.3607C120.127 57.6204 119.152 60.3369 117.202 62.51C115.267 64.6682 112.826 65.7474 109.879 65.7474C107.333 65.7474 105.056 64.7278 103.047 62.6886V76.9554ZM114.992 54.3831C114.992 52.2992 114.426 50.6024 113.295 49.2926C112.149 47.9678 110.705 47.3055 108.963 47.3055C107.118 47.3055 105.622 47.9455 104.476 49.2256C103.33 50.5056 102.757 52.1876 102.757 54.2714C102.757 56.3106 103.33 57.9925 104.476 59.3173C105.607 60.6122 107.095 61.2597 108.941 61.2597C110.683 61.2597 112.119 60.6048 113.25 59.2949C114.411 57.9851 114.992 56.3478 114.992 54.3831Z" fill="#24292E"/>
<path d="M103.047 76.9554H98.0232V43.376H103.047V45.7426C105.026 43.763 107.274 42.7731 109.789 42.7731C112.781 42.7731 115.245 43.8746 117.18 46.0775C119.144 48.2655 120.127 51.0266 120.127 54.3607C120.127 57.6204 119.152 60.3369 117.202 62.51C115.267 64.6682 112.826 65.7474 109.879 65.7474C107.333 65.7474 105.056 64.7278 103.047 62.6886V76.9554ZM114.992 54.3831C114.992 52.2992 114.426 50.6024 113.295 49.2926C112.149 47.9678 110.705 47.3055 108.963 47.3055C107.118 47.3055 105.622 47.9455 104.476 49.2256C103.33 50.5056 102.757 52.1876 102.757 54.2714C102.757 56.3106 103.33 57.9925 104.476 59.3173C105.607 60.6122 107.095 61.2597 108.941 61.2597C110.683 61.2597 112.119 60.6048 113.25 59.2949C114.411 57.9851 114.992 56.3478 114.992 54.3831Z" fill="#24292E"/>
<path d="M43.1441 40.5H47.9443L47.8774 9.69756H42.8538V12.0642C40.8742 10.0846 38.6266 9.09473 36.1112 9.09473C33.1194 9.09473 30.656 10.1962 28.721 12.3991C26.7563 14.5871 25.7739 17.3482 25.7739 20.6823C25.7739 23.9421 26.7488 26.6585 28.6987 28.8316C30.6337 30.9899 33.0747 32.069 36.0219 32.069C38.5671 32.069 40.8444 31.0494 42.8538 29.0102L43.1441 40.5ZM30.909 20.7047C30.909 18.6208 31.4746 16.924 32.6059 15.6142C33.752 14.2895 35.1958 13.6271 36.9372 13.6271C38.7829 13.6271 40.2788 14.2671 41.4249 15.5472C42.571 16.8273 43.1441 18.5092 43.1441 20.593C43.1441 22.6322 42.571 24.3142 41.4249 25.6389C40.2937 26.9338 38.8052 27.5813 36.9596 27.5813C35.2181 27.5813 33.7817 26.9264 32.6505 25.6166C31.4895 24.3067 30.909 22.6694 30.909 20.7047Z" fill="#24292E"/>
<path d="M43.1441 40.5H47.9443L47.8774 9.69756H42.8538V12.0642C40.8742 10.0846 38.6266 9.09473 36.1112 9.09473C33.1194 9.09473 30.656 10.1962 28.721 12.3991C26.7563 14.5871 25.7739 17.3482 25.7739 20.6823C25.7739 23.9421 26.7488 26.6585 28.6987 28.8316C30.6337 30.9899 33.0747 32.069 36.0219 32.069C38.5671 32.069 40.8444 31.0494 42.8538 29.0102L43.1441 40.5ZM30.909 20.7047C30.909 18.6208 31.4746 16.924 32.6059 15.6142C33.752 14.2895 35.1958 13.6271 36.9372 13.6271C38.7829 13.6271 40.2788 14.2671 41.4249 15.5472C42.571 16.8273 43.1441 18.5092 43.1441 20.593C43.1441 22.6322 42.571 24.3142 41.4249 25.6389C40.2937 26.9338 38.8052 27.5813 36.9596 27.5813C35.2181 27.5813 33.7817 26.9264 32.6505 25.6166C31.4895 24.3067 30.909 22.6694 30.909 20.7047Z" fill="#24292E"/>
<path d="M107.372 21.2405H91.7876C91.9216 23.0267 92.5021 24.4481 93.5291 25.5049C94.5562 26.5468 95.8734 27.0678 97.481 27.0678C98.7313 27.0678 99.7657 26.7701 100.584 26.1747C101.388 25.5794 102.304 24.4779 103.331 22.8704L107.573 25.237C106.918 26.3533 106.226 27.3134 105.496 28.1172C104.767 28.906 103.985 29.561 103.152 30.0819C102.318 30.588 101.418 30.9601 100.45 31.1983C99.4829 31.4364 98.4336 31.5555 97.3024 31.5555C94.0575 31.5555 91.4527 30.5136 89.488 28.4297C87.5232 26.331 86.5409 23.5476 86.5409 20.0795C86.5409 16.6412 87.4935 13.8578 89.3987 11.7293C91.3188 9.63066 93.864 8.5813 97.0344 8.5813C100.235 8.5813 102.765 9.60089 104.626 11.64C106.471 13.6643 107.394 16.47 107.394 20.0572L107.372 21.2405ZM102.214 17.1324C101.515 14.4532 99.8253 13.1136 97.1461 13.1136C96.5358 13.1136 95.9627 13.2103 95.4269 13.4038C94.8911 13.5825 94.3999 13.8504 93.9533 14.2076C93.5217 14.5499 93.1496 14.9667 92.837 15.4579C92.5244 15.9491 92.2863 16.5073 92.1225 17.1324H102.214Z" fill="#215FCE"/>
</svg>
